<?xml version="1.0" encoding="iso-8859-1"?>
<!-- Generator: Adobe Illustrator 26.0.0, SVG Export Plug-In . SVG Version: 6.00 Build 0)  -->
<svg version="1.1" id="Capa_1" xmlns="http://www.w3.org/2000/svg" xmlns:xlink="http://www.w3.org/1999/xlink" x="0px" y="0px"
	 viewBox="0 0 71.371 75.697" style="enable-background:new 0 0 71.371 75.697;" xml:space="preserve">
<g>
	<g>
		<path style="fill:#82C7DB;" d="M54.919,16.091c-4.823-4.603-11.426-7.105-19.796-7.518v10.196
			c9.876,0.69,14.819,6.967,14.819,18.839c0,11.678-4.951,18.04-14.819,19.123v10.296c8.285-0.634,14.788-3.143,19.495-7.541
			c5.499-5.138,8.249-12.538,8.249-22.199C62.867,28.214,60.218,21.149,54.919,16.091z"/>
		<path style="fill:#82C7DB;" d="M30.54,56.917h-9.591V18.7h9.922V8.504H8.504v58.689h20.871c0.506,0,1.001-0.011,1.495-0.023
			V56.905C30.758,56.906,30.653,56.917,30.54,56.917z"/>
	</g>
	<path style="fill:#82C7DB;" d="M38.773,4.2c15.659,0,28.398,12.74,28.398,28.398v9.083c0,16.44-13.375,29.816-29.816,29.816H4.2
		V4.2H38.773 M38.773,0H0v75.697h37.355c18.786,0,34.016-15.229,34.016-34.016v-9.083C71.371,14.595,56.776,0,38.773,0L38.773,0z"/>
</g>
</svg>
